<?xml version="1.0" encoding="utf-8"?>
<!-- Generator: Adobe Illustrator 19.2.0, SVG Export Plug-In . SVG Version: 6.00 Build 0)  -->
<svg version="1.1" id="Layer_0_xA0_Image_1_" xmlns="http://www.w3.org/2000/svg" xmlns:xlink="http://www.w3.org/1999/xlink"
	 x="0px" y="0px" viewBox="0 0 102.5 134.8" style="enable-background:new 0 0 102.5 134.8;" xml:space="preserve">
<style type="text/css">
	.st0{fill:#FFFFFF;}
</style>
<g>
	<path class="st0" d="M2.7,135c-4.1-6.5-3.3-11.5,0.9-17.6c13.7-19.8,24.4-41.2,29-65.2C35,39.7,35.1,27.1,33,14.5
		C32.1,9.7,30.9,5,30.5,0c0.3,0.5,0.8,1,0.9,1.5c1.4,8.5,7.1,14.1,12.8,20.1c17,18,26.1,39.9,29.8,64.2c0.2,1.6,0.5,3.3,0.7,4.9
		c0.1,0.7,0.3,1.3,0.5,2.3c8.2,0,16.4,0,25.1,0c-2.4,5.2-5.2,7.8-11.1,7.5c-19.6-0.7-38.9,1.2-57.4,8.4c-10.4,4-20,9-24.9,20
		C5.9,131,4.2,132.7,2.7,135z M36.2,16.3c6.1,33.9-2.8,64.9-18,94.8c14.5-8.7,30-13.7,46.4-16.4c1-0.2,2.4-3,2.2-4.4
		c-2.3-12.4-4.1-24.9-7.6-37C55,39.2,47.3,26.8,36.2,16.3z"/>
	<path class="st0" d="M11.3,133.3c6-3.6,11.8-7.7,18.1-10.7c16.8-7.8,34.8-11.1,53-13.3c6.8-0.8,13.6-1.3,20.1-2.6
		c-14,4.2-28.1,7.9-41.8,12.9C54,122,48.2,127,42,130.8c-1.1,0.7-2.2,1.8-3.4,1.9c-8.9,0.8-17.7,1.5-26.6,2.2
		C11.8,134.3,11.5,133.8,11.3,133.3z"/>
</g>
</svg>
